<?xml version="1.0" standalone="no"?>
<!DOCTYPE svg PUBLIC "-//W3C//DTD SVG 20010904//EN"
 "http://www.w3.org/TR/2001/REC-SVG-20010904/DTD/svg10.dtd">
<svg version="1.0" xmlns="http://www.w3.org/2000/svg"
 width="850.000000pt" height="850.000000pt" viewBox="0 0 850.000000 850.000000"
 preserveAspectRatio="xMidYMid meet">
<metadata>
Created by potrace 1.11, written by Peter Selinger 2001-2013
</metadata>
<g transform="translate(0.000000,850.000000) scale(0.100000,-0.100000)"
fill="#000000" stroke="none">
<path d="M4064 7325 c-63 -14 -162 -56 -197 -84 -109 -87 -183 -188 -217 -297
-27 -87 -33 -220 -14 -311 44 -213 214 -388 425 -437 89 -21 255 -15 332 13
196 69 342 231 382 423 17 79 12 225 -10 298 -88 290 -393 462 -701 395z"/>
<path d="M4042 3240 c-101 -27 -165 -64 -243 -140 -72 -72 -116 -142 -149
-240 -33 -95 -33 -267 -1 -365 65 -201 235 -361 447 -424 39 -12 81 -21 93
-21 21 0 22 -3 16 -52 -9 -77 -48 -182 -91 -247 -83 -125 -288 -289 -467 -373
l-39 -18 20 -32 c10 -18 52 -96 92 -173 40 -77 74 -142 76 -143 9 -12 273 146
399 240 435 323 661 740 666 1231 3 245 -71 426 -245 599 -147 146 -377 209
-574 158z"/>
</g>
</svg>
